<svg width="24" height="25" viewBox="0 0 24 25" fill="none" xmlns="http://www.w3.org/2000/svg">
<path d="M12 0.5C18.624 0.5 24 5.876 24 12.5C24 19.124 18.624 24.5 12 24.5C5.376 24.5 0 19.124 0 12.5C0 5.876 5.376 0.5 12 0.5ZM14.125 5.875C13.6438 5.875 13.25 6.26875 13.25 6.75C13.25 7.23125 13.6438 7.625 14.125 7.625H15.875V9.94336L12.8301 13.75H9.75V10.25C9.75 9.76875 9.35625 9.375 8.875 9.375H6.25C4.31625 9.375 2.75 10.9412 2.75 12.875V14.625C2.75 15.1062 3.14375 15.5 3.625 15.5H4.5C4.5 16.9525 5.6725 18.125 7.125 18.125C8.5775 18.125 9.75 16.9525 9.75 15.5H12.8301C13.3638 15.5 13.8628 15.255 14.1953 14.8438L17.2402 11.0371C17.4938 10.7222 17.625 10.337 17.625 9.94336V7.625C17.625 6.6625 16.8375 5.875 15.875 5.875H14.125ZM17.625 12.875C16.1725 12.875 15 14.0475 15 15.5C15 16.9525 16.1725 18.125 17.625 18.125C19.0775 18.125 20.25 16.9525 20.25 15.5C20.25 14.0475 19.0775 12.875 17.625 12.875ZM8 15.5C8 15.9812 7.60625 16.375 7.125 16.375C6.64375 16.375 6.25 15.9812 6.25 15.5H8ZM17.625 14.625C18.1063 14.625 18.5 15.0188 18.5 15.5C18.5 15.9812 18.1063 16.375 17.625 16.375C17.1437 16.375 16.75 15.9812 16.75 15.5C16.75 15.0188 17.1437 14.625 17.625 14.625ZM6.25 6.75C5.76875 6.75 5.375 7.14375 5.375 7.625C5.375 8.10625 5.76875 8.5 6.25 8.5H8.875C9.35625 8.5 9.75 8.10625 9.75 7.625C9.75 7.14375 9.35625 6.75 8.875 6.75H6.25Z" fill="black"/>
</svg>
