<svg width="24" height="24" viewBox="0 0 24 24" fill="none" xmlns="http://www.w3.org/2000/svg">
<path d="M16.2175 13.9889C15.1161 13.8887 14.5154 15.391 13.7143 15.7916C12.4127 16.4926 10.0096 13.9889 10.0096 13.9889C10.0096 13.9889 7.50635 11.5852 8.10712 10.2832C8.60776 9.48203 10.1097 8.88111 10.0096 7.77945C9.90944 6.77793 7.70661 3.17247 6.60519 4.17399C4.2021 6.37732 4.00185 7.27869 4.00185 9.08142C3.90172 12.1861 7.90686 16.092 7.90686 16.092C8.30738 16.4926 11.8119 20.0981 14.9159 19.998C16.7182 19.998 17.6193 19.7976 19.8222 17.394C20.8235 16.2923 17.319 14.089 16.2175 13.9889Z" fill="white"/>
</svg>
